<?xml version="1.0" encoding="UTF-8"?>
<svg width="256px" height="256px" viewBox="0 0 256 256" version="1.1" xmlns="http://www.w3.org/2000/svg" xmlns:xlink="http://www.w3.org/1999/xlink">
    <title>Cash Logo</title>
    <g stroke="none" stroke-width="1" fill="none" fill-rule="evenodd">
        <circle fill="#4CAF50" cx="128" cy="128" r="128"></circle>
        <g transform="translate(68.000000, 68.000000)" fill="#FFFFFF" fill-rule="nonzero">
            <path d="M120,40 L120,80 C120,91.045695 111.045695,100 100,100 L20,100 C8.954305,100 0,91.045695 0,80 L0,40 C0,28.954305 8.954305,20 20,20 L100,20 C111.045695,20 120,28.954305 120,40 Z M110,40 C110,34.4771525 105.522847,30 100,30 L20,30 C14.4771525,30 10,34.4771525 10,40 L10,80 C10,85.5228475 14.4771525,90 20,90 L100,90 C105.522847,90 110,85.5228475 110,80 L110,40 Z"></path>
            <path d="M60,80 C46.745166,80 36,69.254834 36,56 C36,42.745166 46.745166,32 60,32 C73.254834,32 84,42.745166 84,56 C84,69.254834 73.254834,80 60,80 Z M60,70 C67.7319865,70 74,63.7319865 74,56 C74,48.2680135 67.7319865,42 60,42 C52.2680135,42 46,48.2680135 46,56 C46,63.7319865 52.2680135,70 60,70 Z"></path>
            <path d="M20,65 C24.418278,65 28,61.418278 28,57 C28,52.581722 24.418278,49 20,49 C15.581722,49 12,52.581722 12,57 C12,61.418278 15.581722,65 20,65 Z"></path>
            <path d="M100,65 C104.418278,65 108,61.418278 108,57 C108,52.581722 104.418278,49 100,49 C95.581722,49 92,52.581722 92,57 C92,61.418278 95.581722,65 100,65 Z"></path>
        </g>
    </g>
</svg>
